Coordinates
version=1
nRows=24
nColumns=24
inDegrees=yes

Units are S.I. units (second, meters, Newtons, ...)
Angles are in degrees.

endheader
time	pelvis_tilt	pelvis_list	pelvis_rotation	pelvis_tx	pelvis_ty	pelvis_tz	hip_flexion_r	hip_adduction_r	hip_rotation_r	knee_angle_r	ankle_angle_r	subtalar_angle_r	mtp_angle_r	hip_flexion_l	hip_adduction_l	hip_rotation_l	knee_angle_l	ankle_angle_l	subtalar_angle_l	mtp_angle_l	lumbar_extension	lumbar_bending	lumbar_rotation
      1.90500000	     -8.11910189	     -2.41303085	      2.83740786	      0.44151779	      1.28426842	     -0.87482895	     13.02277773	      7.39349650	     12.63267714	     -6.05568628	     -2.72649776	     -9.42256047	     -1.62301131	     23.83344593	      2.69771873	     -2.34954055	    -58.13439494	    -10.64444724	    -32.22355276	      7.08155776	      1.13540091	      4.94555130	     -0.82700566
      1.91000000	     -8.04930997	     -2.35389332	      2.62174581	      0.44700316	      1.28461098	     -0.87454381	     12.29443990	      7.38998433	     13.11812667	     -5.60711769	     -2.71205301	     -9.75715901	     -1.41299889	     24.49698371	      2.82437815	     -2.37009534	    -57.73162797	     -9.69822034	    -31.84117710	      7.12662773	      1.01814787	      4.89937641	     -0.56025642
      1.91500000	     -7.94636140	     -2.29008164	      2.34014117	      0.45241731	      1.28492982	     -0.87419607	     11.55916837	      7.39455208	     13.68060919	     -5.20215709	     -2.67081983	    -10.05816481	     -1.21159894	     25.09147340	      2.91636751	     -2.45533019	    -57.23031417	     -8.85627661	    -31.54375850	      7.16498717	      0.85368047	      4.85659999	     -0.18353359
      1.92000000	     -7.80438546	     -2.20722068	      2.02644797	      0.45774388	      1.28525030	     -0.87384502	     10.81799890	      7.37897307	     14.26071364	     -4.86269752	     -2.52230746	    -10.20037041	     -1.13095360	     25.60938654	      3.02099663	     -2.54716300	    -56.61353234	     -8.19794249	    -31.36005537	      7.18917741	      0.63073499	      4.79990544	      0.24504275
      1.92500000	     -7.72095912	     -2.14774943	      1.68362427	      0.46299840	      1.28541689	     -0.87340875	     10.12315732	      7.39048230	     15.02871188	     -4.46285806	     -2.60686530	    -10.82273500	     -0.93924044	     26.19865935	      3.05714868	     -2.66566089	    -55.98370651	     -7.26872319	    -30.73567698	      7.28168321	      0.45136262	      4.76803421	      0.62708353
      1.93000000	     -7.59881855	     -2.08820955	      1.28442162	      0.46817677	      1.28556533	     -0.87293451	      9.42664593	      7.40749625	     15.81459978	     -4.13214002	     -2.56701159	    -11.30369184	     -0.74765376	     26.71491350	      3.05578431	     -2.84077055	    -55.25894312	     -6.55777986	    -30.31634407	      7.33664588	      0.22294658	      4.73966938	      1.11942316
      1.93500000	     -7.49589930	     -2.03083131	      0.85147287	      0.47322250	      1.28565096	     -0.87243952	      8.78693839	      7.42587085	     16.71756317	     -3.84790303	     -2.61666383	    -11.88892198	     -0.53842856	     27.23366188	      3.04156099	     -3.00150072	    -54.46079974	     -5.81007643	    -29.83976507	      7.39615510	     -0.01480487	      4.72196819	      1.61261651
      1.94000000	     -7.37498095	     -1.98115221	      0.37641741	      0.47820636	      1.28569524	     -0.87189287	      8.14565404	      7.45362539	     17.66053084	     -3.58765136	     -2.63828884	    -12.50231010	     -0.33749670	     27.70990081	      2.97631358	     -3.20754513	    -53.59385259	     -5.14872684	    -29.36609824	      7.45634808	     -0.28079249	      4.70929967	      2.15685555
      1.94500000	     -7.23562899	     -1.94497649	     -0.12857606	      0.48312075	      1.28568836	     -0.87131561	      7.50080912	      7.49212260	     18.62400772	     -3.34982312	     -2.60053180	    -13.09746192	     -0.17573062	     28.15104774	      2.85847661	     -3.45367996	    -52.67203586	     -4.58366869	    -28.91485102	      7.50964798	     -0.57576010	      4.70941236	      2.75742454
      1.95000000	     -7.12569368	     -1.90515631	     -0.67112808	      0.48793094	      1.28562369	     -0.87068933	      6.92450538	      7.52908267	     19.70740874	     -3.16361473	     -2.68700512	    -13.83595019	      0.02031212	     28.59180564	      2.71931606	     -3.70870047	    -51.66598038	     -3.95137896	    -28.43079421	      7.56263830	     -0.86611466	      4.70788328	      3.33069357
      1.95500000	     -6.99172485	     -1.88346983	     -1.24367061	      0.49267365	      1.28551430	     -0.87005128	      6.33984420	      7.58037929	     20.79259942	     -3.00223318	     -2.72022352	    -14.55155604	      0.22034575	     28.98873835	      2.52771753	     -3.99143360	    -50.61089741	     -3.41585380	    -27.97057714	      7.60191279	     -1.19064104	      4.72698888	      3.96309012
      1.96000000	     -6.85906042	     -1.87133475	     -1.84006894	      0.49735520	      1.28536023	     -0.86938367	      5.77669491	      7.63842588	     21.90192200	     -2.87247517	     -2.74519626	    -15.27222447	      0.40337412	     29.36117178	      2.29463926	     -4.29991764	    -49.49246722	     -2.92573490	    -27.52939286	      7.63314471	     -1.52556822	      4.75213784	      4.60915724
      1.96500000	     -6.71899696	     -1.87496697	     -2.44850397	      0.50197624	      1.28516305	     -0.86869872	      5.22659634	      7.70919784	     23.01638325	     -2.77851196	     -2.75378492	    -15.97540260	      0.58463804	     29.69954633	      2.01940789	     -4.62551192	    -48.31475374	     -2.48213338	    -27.11609232	      7.65650382	     -1.87877425	      4.78186598	      5.27422911
      1.97000000	     -6.57257615	     -1.89836624	     -3.07345882	      0.50654868	      1.28491696	     -0.86801480	      4.68261544	      7.79447505	     24.13001104	     -2.70753154	     -2.74573666	    -16.67132168	      0.74095117	     30.00928044	      1.69911709	     -4.96376586	    -47.09376500	     -2.09628941	    -26.69308695	      7.68000107	     -2.24684560	      4.83047582	      5.96716051
      1.97500000	     -6.43849958	     -1.92477612	     -3.71766300	      0.51108849	      1.28462951	     -0.86730211	      4.17769897	      7.88413149	     25.24433105	     -2.68320771	     -2.74915822	    -17.35666772	      0.91290445	     30.28958275	      1.34987732	     -5.32976576	    -45.79340663	     -1.70136822	    -26.32154883	      7.68744433	     -2.61026897	      4.87768577	      6.63115704
      1.98000000	     -6.28677332	     -1.97600650	     -4.35296994	      0.51558146	      1.28430165	     -0.86663895	      3.65775035	      7.98532768	     26.31331255	     -2.66910429	     -2.68880059	    -17.96002490	      1.05461233	     30.53120921	      0.96900486	     -5.68736954	    -44.45638506	     -1.39711479	    -25.95468174	      7.68865065	     -3.00401789	      4.94852127	      7.32859932
      1.98500000	     -6.14959892	     -2.03685691	     -4.99794648	      0.52007417	      1.28393030	     -0.86593294	      3.17072960	      8.10096949	     27.38550551	     -2.69686109	     -2.64834728	    -18.57653632	      1.20141475	     30.74504582	      0.55206478	     -6.07295263	    -43.05142792	     -1.08395770	    -25.59549100	      7.68498072	     -3.37913492	      5.01134770	      8.00539320
      1.99000000	     -5.98414606	     -2.10534065	     -5.62269952	      0.52455389	      1.28355974	     -0.86531563	      2.70060396	      8.22282477	     28.24025132	     -2.83075237	     -2.37933568	    -18.74389555	      1.25874907	     30.88592957	      0.14600588	     -6.43843110	    -41.56333899	     -0.96476017	    -25.45050246	      7.66980918	     -3.79298277	      5.08222102	      8.65281341
      1.99500000	     -5.86890662	     -2.20771431	     -6.26882291	      0.52903621	      1.28306753	     -0.86460981	      2.21696407	      8.36415064	     29.35960438	     -2.82751165	     -2.46410043	    -19.59390875	      1.40654489	     31.06067477	     -0.34922939	     -6.85419280	    -40.08579471	     -0.57280286	    -24.92027993	      7.67750604	     -4.15326408	      5.17582653	      9.32573599
      2.00000000	     -5.72925536	     -2.31288981	     -6.87649503	      0.53352423	      1.28258495	     -0.86403883	      1.77708602	      8.51293883	     30.16395303	     -2.98708264	     -2.15845267	    -19.71344568	      1.47809657	     31.16151472	     -0.80411890	     -7.22401696	    -38.50845043	     -0.52360334	    -24.78760408	      7.65571546	     -4.54173623	      5.27427092	      9.95776647
      2.00500000	     -5.60326427	     -2.44415759	     -7.48577628	      0.53803869	      1.28203298	     -0.86342421	      1.29275983	      8.66824063	     31.12190568	     -3.03058950	     -2.15524053	    -20.35413974	      1.64118785	     31.24162451	     -1.31684115	     -7.63071650	    -36.91718429	     -0.21038766	    -24.28308490	      7.66243819	     -4.91096778	      5.38578235	     10.61343418
      2.01000000	     -5.52889452	     -2.55940190	     -8.05362810	      0.54263596	      1.28141936	     -0.86292737	      0.91968110	      8.82109389	     31.82399529	     -3.21299690	     -1.76374147	    -20.41962472	      1.69224537	     31.32502100	     -1.76759436	     -7.97590980	    -35.22423054	     -0.17713660	    -24.20216670	      7.63579735	     -5.21275830	      5.49174512	     11.17419721
      2.01500000	     -5.42335191	     -2.70744756	     -8.62096865	      0.54721429	      1.28079673	     -0.86243574	      0.50317192	      8.99754357	     32.53149985	     -3.38599254	     -1.48238052	    -20.52914327	      1.74836160	     31.33852071	     -2.26487431	     -8.35513740	    -33.50323846	     -0.15160903	    -23.97526439	      7.63207600	     -5.55662131	      5.61895443	     11.76497300
      2.02000000	     -5.30545712	     -2.89485769	     -9.17780171	      0.55181527	      1.28012504	     -0.86189887	      0.02083775	      9.19503760	     33.35688770	     -3.46853525	     -1.43555854	    -21.03473130	      1.96388529	     31.31493357	     -2.82979257	     -8.79328292	    -31.80322336	      0.09367160	    -23.31355485	      7.68721310	     -5.92032290	      5.77001398	     12.31937503
